#Comment line ignore any data following # character 
#Hierarchical Translation and Rotation (.htr) file 
[Header]	
#Header keywords are followed by a single value 
FileType HTR		#Single word string
DataType HTRS		#Translation followed by rotation and scale data
FileVersion 1		#integer
NumSegments 84		#integer
NumFrames 2		#integer
DataFrameRate 30		#integer, data frame rate in this file
EulerRotationOrder ZYX
CalibrationUnits mm
RotationUnits Degrees
GlobalAxisofGravity Y
BoneLengthAxis Y
ScaleFactor 1.00
[SegmentNames&Hierarchy]
#CHILD	PARENT
MASTER GLOBAL
root MASTER
chest root
L_mid_tent01 root
R_mid_tent01 root
spine01 root
Bip01_Neck chest
L_humerus chest
R_humerus chest
weapon_bone chest
Bip01_Head Bip01_Neck
eye_left_bone Bip01_Head
eye_right_bone Bip01_Head
L_forearm L_humerus
L_front_hand L_forearm
L_weapon_bone L_forearm
L_front_hand01_01 L_front_hand
L_front_hand02_01 L_front_hand
L_front_hand03_01 L_front_hand
L_front_hand01_02 L_front_hand01_01
L_front_hand02_02 L_front_hand02_01
L_front_hand03_02 L_front_hand03_01
R_forearm R_humerus
R_front_hand R_forearm
R_weapon_bone R_forearm
R_front_hand01_01 R_front_hand
R_front_hand02_01 R_front_hand
R_front_hand03_01 R_front_hand
R_front_hand01_02 R_front_hand01_01
R_front_hand02_02 R_front_hand02_01
R_front_hand03_02 R_front_hand03_01
null_rope01_connect L_mid_tent01
Rope1_Seg01 null_rope01_connect
Rope1_Seg02 Rope1_Seg01
Rope1_Seg03 Rope1_Seg02
Rope1_Seg04 Rope1_Seg03
Rope1_Seg05 Rope1_Seg04
Rope1_Seg06 Rope1_Seg05
Rope1_Seg07 Rope1_Seg06
Rope1_Seg09 Rope1_Seg07
L_mid_hand01 Rope1_Seg09
L_mid_hand02 Rope1_Seg09
L_mid_hand03 Rope1_Seg09
null_rope02_connect R_mid_tent01
Rope2_Seg01 null_rope02_connect
Rope2_Seg02 Rope2_Seg01
Rope2_Seg03 Rope2_Seg02
Rope2_Seg04 Rope2_Seg03
Rope2_Seg05 Rope2_Seg04
Rope2_Seg06 Rope2_Seg05
Rope2_Seg07 Rope2_Seg06
Rope2_Seg09 Rope2_Seg07
R_mid_hand01 Rope2_Seg09
R_mid_hand02 Rope2_Seg09
R_mid_hand03 Rope2_Seg09
spine02 spine01
spine03 spine02
pelvis spine03
null_rope03_connect pelvis
null_rope04_connect pelvis
Rope3_Seg01 null_rope03_connect
Rope3_Seg02 Rope3_Seg01
Rope3_Seg03 Rope3_Seg02
Rope3_Seg04 Rope3_Seg03
Rope3_Seg05 Rope3_Seg04
Rope3_Seg06 Rope3_Seg05
Rope3_Seg07 Rope3_Seg06
Rope3_Seg08 Rope3_Seg07
Rope3_Seg09 Rope3_Seg08
R_rear_hand01 Rope3_Seg09
R_rear_hand02 Rope3_Seg09
R_rear_hand03 Rope3_Seg09
Rope4_Seg01 null_rope04_connect
Rope4_Seg02 Rope4_Seg01
Rope4_Seg03 Rope4_Seg02
Rope4_Seg04 Rope4_Seg03
Rope4_Seg05 Rope4_Seg04
Rope4_Seg06 Rope4_Seg05
Rope4_Seg07 Rope4_Seg06
Rope4_Seg08 Rope4_Seg07
Rope4_Seg09 Rope4_Seg08
L_rear_hand01 Rope4_Seg09
L_rear_hand02 Rope4_Seg09
L_rear_hand03 Rope4_Seg09
[BasePosition]
#SegmentName Tx, Ty, Tz, Rx, Ry, Rz, BoneLength
MASTER 0.000000 0.000000 0.000000 -90.000000 0.000000 0.000000 10.000000 
root 0.000000 0.000000 0.000000 0.000000 0.000000 0.000000 10.000000 
chest 0.000000 0.000000 0.000000 0.000000 0.000000 0.000000 10.000000 
L_mid_tent01 0.000000 0.000000 0.000000 0.000000 0.000000 0.000000 10.000000 
R_mid_tent01 0.000000 0.000000 0.000000 0.000000 0.000000 0.000000 10.000000 
spine01 0.000000 0.000000 0.000000 0.000000 0.000000 0.000000 10.000000 
Bip01_Neck 0.000000 0.000000 0.000000 0.000000 0.000000 0.000000 10.000000 
L_humerus 0.000000 0.000000 0.000000 0.000000 0.000000 0.000000 10.000000 
R_humerus 0.000000 0.000000 0.000000 0.000000 0.000000 0.000000 10.000000 
weapon_bone 0.000000 0.000000 0.000000 0.000000 0.000000 0.000000 10.000000 
Bip01_Head 0.000000 0.000000 0.000000 0.000000 0.000000 0.000000 10.000000 
eye_left_bone 0.000000 0.000000 0.000000 0.000000 0.000000 0.000000 10.000000 
eye_right_bone 0.000000 0.000000 0.000000 0.000000 0.000000 0.000000 10.000000 
L_forearm 0.000000 0.000000 0.000000 0.000000 0.000000 0.000000 10.000000 
L_front_hand 0.000000 0.000000 0.000000 0.000000 0.000000 0.000000 10.000000 
L_weapon_bone 0.000000 0.000000 0.000000 0.000000 0.000000 0.000000 10.000000 
L_front_hand01_01 0.000000 0.000000 0.000000 0.000000 0.000000 0.000000 10.000000 
L_front_hand02_01 0.000000 0.000000 0.000000 0.000000 0.000000 0.000000 10.000000 
L_front_hand03_01 0.000000 0.000000 0.000000 0.000000 0.000000 0.000000 10.000000 
L_front_hand01_02 0.000000 0.000000 0.000000 0.000000 0.000000 0.000000 10.000000 
L_front_hand02_02 0.000000 0.000000 0.000000 0.000000 0.000000 0.000000 10.000000 
L_front_hand03_02 0.000000 0.000000 0.000000 0.000000 0.000000 0.000000 10.000000 
R_forearm 0.000000 0.000000 0.000000 0.000000 0.000000 0.000000 10.000000 
R_front_hand 0.000000 0.000000 0.000000 0.000000 0.000000 0.000000 10.000000 
R_weapon_bone 0.000000 0.000000 0.000000 0.000000 0.000000 0.000000 10.000000 
R_front_hand01_01 0.000000 0.000000 0.000000 0.000000 0.000000 0.000000 10.000000 
R_front_hand02_01 0.000000 0.000000 0.000000 0.000000 0.000000 0.000000 10.000000 
R_front_hand03_01 0.000000 0.000000 0.000000 0.000000 0.000000 0.000000 10.000000 
R_front_hand01_02 0.000000 0.000000 0.000000 0.000000 0.000000 0.000000 10.000000 
R_front_hand02_02 0.000000 0.000000 0.000000 0.000000 0.000000 0.000000 10.000000 
R_front_hand03_02 0.000000 0.000000 0.000000 0.000000 0.000000 0.000000 10.000000 
null_rope01_connect 0.000000 0.000000 0.000000 0.000000 0.000000 0.000000 10.000000 
Rope1_Seg01 0.000000 0.000000 0.000000 0.000000 0.000000 0.000000 10.000000 
Rope1_Seg02 0.000000 0.000000 0.000000 0.000000 0.000000 0.000000 10.000000 
Rope1_Seg03 0.000000 0.000000 0.000000 0.000000 0.000000 0.000000 10.000000 
Rope1_Seg04 0.000000 0.000000 0.000000 0.000000 0.000000 0.000000 10.000000 
Rope1_Seg05 0.000000 0.000000 0.000000 0.000000 0.000000 0.000000 10.000000 
Rope1_Seg06 0.000000 0.000000 0.000000 0.000000 0.000000 0.000000 10.000000 
Rope1_Seg07 0.000000 0.000000 0.000000 0.000000 0.000000 0.000000 10.000000 
Rope1_Seg09 0.000000 0.000000 0.000000 0.000000 0.000000 0.000000 10.000000 
L_mid_hand01 0.000000 0.000000 0.000000 0.000000 0.000000 0.000000 10.000000 
L_mid_hand02 0.000000 0.000000 0.000000 0.000000 0.000000 0.000000 10.000000 
L_mid_hand03 0.000000 0.000000 0.000000 0.000000 0.000000 0.000000 10.000000 
null_rope02_connect 0.000000 0.000000 0.000000 0.000000 0.000000 0.000000 10.000000 
Rope2_Seg01 0.000000 0.000000 0.000000 0.000000 0.000000 0.000000 10.000000 
Rope2_Seg02 0.000000 0.000000 0.000000 0.000000 0.000000 0.000000 10.000000 
Rope2_Seg03 0.000000 0.000000 0.000000 0.000000 0.000000 0.000000 10.000000 
Rope2_Seg04 0.000000 0.000000 0.000000 0.000000 0.000000 0.000000 10.000000 
Rope2_Seg05 0.000000 0.000000 0.000000 0.000000 0.000000 0.000000 10.000000 
Rope2_Seg06 0.000000 0.000000 0.000000 0.000000 0.000000 0.000000 10.000000 
Rope2_Seg07 0.000000 0.000000 0.000000 0.000000 0.000000 0.000000 10.000000 
Rope2_Seg09 0.000000 0.000000 0.000000 0.000000 0.000000 0.000000 10.000000 
R_mid_hand01 0.000000 0.000000 0.000000 0.000000 0.000000 0.000000 10.000000 
R_mid_hand02 0.000000 0.000000 0.000000 0.000000 0.000000 0.000000 10.000000 
R_mid_hand03 0.000000 0.000000 0.000000 0.000000 0.000000 0.000000 10.000000 
spine02 0.000000 0.000000 0.000000 0.000000 0.000000 0.000000 10.000000 
spine03 0.000000 0.000000 0.000000 0.000000 0.000000 0.000000 10.000000 
pelvis 0.000000 0.000000 0.000000 0.000000 0.000000 0.000000 10.000000 
null_rope03_connect 0.000000 0.000000 0.000000 0.000000 0.000000 0.000000 10.000000 
null_rope04_connect 0.000000 0.000000 0.000000 0.000000 0.000000 0.000000 10.000000 
Rope3_Seg01 0.000000 0.000000 0.000000 0.000000 0.000000 0.000000 10.000000 
Rope3_Seg02 0.000000 0.000000 0.000000 0.000000 0.000000 0.000000 10.000000 
Rope3_Seg03 0.000000 0.000000 0.000000 0.000000 0.000000 0.000000 10.000000 
Rope3_Seg04 0.000000 0.000000 0.000000 0.000000 0.000000 0.000000 10.000000 
Rope3_Seg05 0.000000 0.000000 0.000000 0.000000 0.000000 0.000000 10.000000 
Rope3_Seg06 0.000000 0.000000 0.000000 0.000000 0.000000 0.000000 10.000000 
Rope3_Seg07 0.000000 0.000000 0.000000 0.000000 0.000000 0.000000 10.000000 
Rope3_Seg08 0.000000 0.000000 0.000000 0.000000 0.000000 0.000000 10.000000 
Rope3_Seg09 0.000000 0.000000 0.000000 0.000000 0.000000 0.000000 10.000000 
R_rear_hand01 0.000000 0.000000 0.000000 0.000000 0.000000 0.000000 10.000000 
R_rear_hand02 0.000000 0.000000 0.000000 0.000000 0.000000 0.000000 10.000000 
R_rear_hand03 0.000000 0.000000 0.000000 0.000000 0.000000 0.000000 10.000000 
Rope4_Seg01 0.000000 0.000000 0.000000 0.000000 0.000000 0.000000 10.000000 
Rope4_Seg02 0.000000 0.000000 0.000000 0.000000 0.000000 0.000000 10.000000 
Rope4_Seg03 0.000000 0.000000 0.000000 0.000000 0.000000 0.000000 10.000000 
Rope4_Seg04 0.000000 0.000000 0.000000 0.000000 0.000000 0.000000 10.000000 
Rope4_Seg05 0.000000 0.000000 0.000000 0.000000 0.000000 0.000000 10.000000 
Rope4_Seg06 0.000000 0.000000 0.000000 0.000000 0.000000 0.000000 10.000000 
Rope4_Seg07 0.000000 0.000000 0.000000 0.000000 0.000000 0.000000 10.000000 
Rope4_Seg08 0.000000 0.000000 0.000000 0.000000 0.000000 0.000000 10.000000 
Rope4_Seg09 0.000000 0.000000 0.000000 0.000000 0.000000 0.000000 10.000000 
L_rear_hand01 0.000000 0.000000 0.000000 0.000000 0.000000 0.000000 10.000000 
L_rear_hand02 0.000000 0.000000 0.000000 0.000000 0.000000 0.000000 10.000000 
L_rear_hand03 0.000000 0.000000 0.000000 0.000000 0.000000 0.000000 10.000000 
#Beginning of Data. Separated by tabs
#Fr	Tx	Ty	Tz	Rx	Ry	Rz	SF
[MASTER]
12 0.000000 0.000000 0.000000 0.001660 0.001660 0.001660 0.000000
13 0.000000 0.000000 0.000000 0.001660 0.001660 0.001660 0.000000
[root]
12 -16.502337 80.942879 1584.764160 -85.214851 -4.263660 -110.007988 1586.915649
13 -16.502338 84.654427 1608.808228 -85.152718 -0.949499 -107.790176 1611.118530
[chest]
12 -84.512650 -34.090519 0.000000 -2.091714 -0.015215 167.314590 91.129311
13 -84.512650 -34.090519 0.000000 -2.091713 -0.015397 167.304657 91.129311
[L_mid_tent01]
12 27.299091 22.179213 -249.918686 67.223511 21.862688 161.529465 252.381683
13 27.299093 22.179209 -249.918686 67.495209 17.462746 162.627914 252.381668
[R_mid_tent01]
12 23.228794 24.509907 226.238495 -167.847580 -31.133240 38.901325 228.744751
13 23.228794 24.509907 226.238495 -178.520813 -18.114941 38.546886 228.744751
[spine01]
12 -0.361383 -0.195265 0.000000 -0.000001 -0.000007 22.052340 0.410763
13 -0.361383 -0.195265 0.000000 -0.000001 -0.000007 22.052340 0.410763
[Bip01_Neck]
12 165.484543 71.581718 0.000119 175.896118 1.177290 24.871180 180.302734
13 165.484543 71.581718 0.000119 175.896118 1.177290 24.871181 180.302734
[L_humerus]
12 -13.983130 -135.272980 -120.471481 -103.209953 11.579951 2.763463 181.680161
13 -13.983130 -135.272980 -120.471481 -102.655907 5.534721 3.850050 181.680161
[R_humerus]
12 -13.983309 -135.273102 125.287651 -129.198486 -26.399796 -150.362808 184.909012
13 -13.983309 -135.273102 125.287651 -129.899597 -26.350672 -149.371506 184.909012
[weapon_bone]
12 235.964890 -300.705902 0.000000 0.000000 -89.951546 -128.212341 382.234833
13 235.964890 -300.705902 0.000000 0.000000 -89.951546 -128.212341 382.234833
[Bip01_Head]
12 164.433060 157.839996 8.780673 1.441171 -1.391829 -37.220135 228.098221
13 162.901459 175.919495 10.109062 1.344484 -1.643729 -34.990791 239.972382
[eye_left_bone]
12 33.005550 158.898254 -74.419571 -109.794327 -86.321236 10.313614 178.539337
13 33.338623 159.031860 -74.331161 -110.708466 -86.429703 11.229351 178.683304
[eye_right_bone]
12 42.257996 159.965134 54.327183 70.156441 -86.320602 10.362757 174.143692
13 42.318317 160.053802 54.449718 69.253227 -86.437401 11.268817 174.278030
[L_forearm]
12 322.776093 0.000000 -0.000119 0.001548 0.001764 -7.451789 322.776093
13 322.776093 0.000000 -0.000119 0.001586 0.001730 -4.965366 322.776093
[L_front_hand]
12 241.149185 -0.042021 -3.300071 133.905457 -2.107685 -13.141956 241.171753
13 241.149185 -0.042021 -3.300071 86.972633 -2.109581 -13.141063 241.171753
[L_weapon_bone]
12 156.183838 0.000000 0.000000 0.000014 0.000007 0.000001 156.183838
13 156.183838 0.000000 0.000000 0.000014 0.000007 0.000001 156.183838
[L_front_hand01_01]
12 86.095154 20.947098 -0.655860 -0.366594 -0.477154 75.385574 88.609184
13 86.095154 20.947098 -0.655860 -0.366594 -0.477154 75.385574 88.609184
[L_front_hand02_01]
12 86.935165 -11.437475 24.513514 154.399796 -59.883835 -61.369587 91.046425
13 86.935165 -11.437475 24.513514 154.399796 -59.883835 -61.369587 91.046425
[L_front_hand03_01]
12 86.637497 -14.123976 -20.424902 -153.913849 58.118130 -62.702866 90.126129
13 86.637497 -14.123976 -20.424902 -153.913849 58.118122 -62.702850 90.126129
[L_front_hand01_02]
12 71.020905 -0.000179 0.000030 0.000334 -0.002323 -106.379684 71.020905
13 71.020905 -0.000179 0.000030 0.000334 -0.002323 -106.379684 71.020905
[L_front_hand02_02]
12 71.020927 -0.000119 0.000060 0.000334 -0.002323 -106.379684 71.020927
13 71.020927 -0.000119 0.000060 0.000334 -0.002323 -106.379684 71.020927
[L_front_hand03_02]
12 71.020905 -0.000060 0.000060 0.000334 -0.002323 -106.379684 71.020905
13 71.020905 -0.000060 0.000060 0.000334 -0.002323 -106.379684 71.020905
[R_forearm]
12 322.776428 -0.000060 0.000030 0.198220 -0.067713 -72.138954 322.776428
13 322.776428 -0.000060 0.000030 0.202571 -0.063686 -72.770439 322.776428
[R_front_hand]
12 238.847015 -0.006795 2.210259 -2.635298 -10.645461 -26.312506 238.857239
13 238.847015 -0.006795 2.210259 -2.635298 -10.645461 -26.312506 238.857239
[R_weapon_bone]
12 155.664093 0.002503 -0.000030 0.003487 0.001180 -90.988930 155.664078
13 155.664093 0.002503 -0.000030 0.003487 0.001180 -90.988930 155.664078
[R_front_hand01_01]
12 87.624611 14.231146 22.918642 -154.633484 -59.950607 61.746037 91.683487
13 87.624611 14.231146 22.918642 -154.633499 -59.950619 61.746044 91.683487
[R_front_hand02_01]
12 89.356956 14.367283 -19.491137 154.602661 58.302856 63.744389 92.579636
13 89.356956 14.367283 -19.491137 154.602661 58.302849 63.744389 92.579636
[R_front_hand03_01]
12 87.286232 -22.307278 -0.143439 0.162155 -0.423168 -75.767921 90.091743
13 87.286232 -22.307278 -0.143439 0.162155 -0.423168 -75.767921 90.091743
[R_front_hand01_02]
12 71.020905 0.000060 0.000119 0.002323 -0.000334 106.381714 71.020905
13 71.020905 0.000060 0.000119 0.002323 -0.000334 106.381714 71.020905
[R_front_hand02_02]
12 71.020844 -0.000030 -0.000119 0.002323 -0.000334 106.381714 71.020836
13 71.020844 -0.000030 -0.000119 0.002323 -0.000334 106.381714 71.020836
[R_front_hand03_02]
12 71.020905 0.000000 0.000030 0.002323 -0.000334 106.381714 71.020905
13 71.020905 0.000000 0.000030 0.002323 -0.000334 106.381714 71.020905
[null_rope01_connect]
12 328.732483 0.000000 -0.000238 -157.791763 -19.448757 92.030670 328.732483
13 328.732483 0.000000 -0.000238 -160.742645 -21.403933 89.084885 328.732483
[Rope1_Seg01]
12 0.000000 0.000000 0.000000 72.769432 14.761241 78.051773 0.000000
13 0.000000 0.000000 0.000000 77.340073 16.581335 82.808052 0.000000
[Rope1_Seg02]
12 139.999863 -0.000179 0.000000 4.275496 -1.096653 6.442896 139.999863
13 139.999863 -0.000179 0.000000 4.368731 -1.629851 7.776157 139.999863
[Rope1_Seg03]
12 139.999924 0.000060 -0.000060 7.454401 -0.257021 7.543621 139.999924
13 139.999924 0.000060 -0.000060 7.845814 -0.765828 8.926288 139.999924
[Rope1_Seg04]
12 139.999924 -0.000060 -0.000119 14.124209 1.397726 9.294962 139.999924
13 139.999924 -0.000060 -0.000119 16.247768 1.147413 11.138612 139.999924
[Rope1_Seg05]
12 139.999832 0.000119 -0.000060 -8.200387 -3.684635 -2.021250 139.999832
13 139.999832 0.000119 -0.000060 -7.542796 -3.253942 -2.005288 139.999832
[Rope1_Seg06]
12 139.999954 0.000119 -0.000060 -11.371255 -3.663491 -5.075601 139.999954
13 139.999954 0.000119 -0.000060 -12.799805 -3.893660 -6.367474 139.999954
[Rope1_Seg07]
12 139.999985 0.000060 0.000000 -3.450675 -1.087168 -1.648021 139.999985
13 139.999985 0.000060 0.000000 -3.710066 -1.012410 -2.123209 139.999985
[Rope1_Seg09]
12 121.602913 0.000119 -0.000089 79.804237 -1.397494 0.846959 121.602913
13 121.602913 0.000119 -0.000089 136.338776 -1.390098 0.830407 121.602913
[L_mid_hand01]
12 103.859421 1.038730 8.195221 104.407768 -4.894536 -1.788017 104.187431
13 103.859421 1.038730 8.195221 104.517319 -8.577770 -2.743145 104.187431
[L_mid_hand02]
12 105.572853 -4.139662 -10.864139 -136.001450 7.671368 -7.276721 106.211075
13 105.572853 -4.139662 -10.864139 -136.434753 10.300919 -10.054398 106.211075
[L_mid_hand03]
12 104.641464 17.579376 -3.913581 -18.715752 1.412811 8.062191 106.179977
13 104.641464 17.579376 -3.913581 -18.586889 2.627153 11.664845 106.179977
[null_rope02_connect]
12 328.732849 0.000179 -0.000119 -178.754761 58.093067 -57.184593 328.732849
13 328.732849 0.000179 -0.000119 167.725449 72.763321 -67.657288 328.732849
[Rope2_Seg01]
12 0.000095 0.000153 0.000023 60.735184 -5.288093 -60.992264 0.000181
13 0.000095 0.000153 0.000025 96.179047 9.950891 -80.214058 0.000182
[Rope2_Seg02]
12 139.999741 -0.000060 -0.000119 178.423721 45.960056 -23.165524 139.999756
13 139.999741 -0.000060 -0.000119 82.857506 26.472023 -33.421848 139.999756
[Rope2_Seg03]
12 140.000107 0.000030 0.000000 9.407166 -34.596481 4.063937 140.000107
13 140.000107 0.000030 0.000000 31.527243 -12.801149 -9.944977 140.000107
[Rope2_Seg04]
12 139.999802 0.000000 -0.000060 6.226922 -49.873737 -2.824754 139.999802
13 139.999802 0.000000 -0.000060 43.222057 -47.221222 -32.020649 139.999802
[Rope2_Seg05]
12 139.999985 -0.000060 0.000119 -1.062767 -10.241977 0.906331 139.999985
13 139.999985 -0.000060 0.000119 -0.620479 -35.074871 1.525686 139.999985
[Rope2_Seg06]
12 139.999893 -0.000030 -0.000119 -0.686018 -4.497967 0.370122 139.999893
13 139.999893 -0.000030 -0.000119 -1.179265 -7.973176 0.440827 139.999893
[Rope2_Seg07]
12 139.999893 0.000060 -0.000060 -0.482265 -2.579474 0.180714 139.999893
13 139.999893 0.000060 -0.000060 -0.784902 -3.905343 0.137292 139.999893
[Rope2_Seg09]
12 121.338966 0.000089 -0.000060 33.793236 -1.359788 -0.847141 121.338966
13 121.338966 0.000089 -0.000060 33.793236 -1.359788 -0.847141 121.338966
[R_mid_hand01]
12 104.680779 11.144459 -10.335981 -22.898916 42.775772 60.849827 105.778534
13 104.680779 11.144459 -10.335981 -16.212063 45.237247 70.462852 105.778534
[R_mid_hand02]
12 104.070427 2.443552 8.231699 58.317043 -61.818993 29.085112 104.424065
13 104.070427 2.443552 8.231699 49.067368 -67.749771 39.286453 104.424065
[R_mid_hand03]
12 106.028137 -11.221827 -5.996406 -175.092896 15.051620 -68.999649 106.788818
13 106.028137 -11.221827 -5.996406 -177.101105 15.551026 -76.585571 106.788818
[spine02]
12 129.756927 0.001550 0.000119 1.023200 -3.930916 -22.420385 129.756927
13 129.756927 0.001550 0.000119 1.004812 -3.935060 -22.167608 129.756927
[spine03]
12 78.614067 0.081635 -4.899009 -2.172445 3.683302 -40.436489 78.766602
13 78.614067 0.081635 -4.899009 -2.075993 3.738875 -38.935184 78.766602
[pelvis]
12 169.435242 0.051022 0.000000 -0.062112 -0.179664 15.136686 169.435257
13 169.435242 0.051022 0.000000 -0.062122 -0.179661 15.143341 169.435257
[null_rope03_connect]
12 -1.257226 -2.466202 137.391083 -71.572456 -69.363998 -167.119476 137.418976
13 -1.257226 -2.466202 137.391083 -69.696320 -71.089699 -174.173523 137.418976
[null_rope04_connect]
12 -1.259640 -2.480268 -137.844437 -71.572456 -69.363998 -167.119476 137.872513
13 -1.259640 -2.480268 -137.844437 -69.696320 -71.089699 -174.173523 137.872513
[Rope3_Seg01]
12 0.000010 0.000026 -0.000106 -138.837952 33.933376 -88.358086 0.000110
13 0.000010 0.000025 -0.000102 -134.264740 33.358414 -79.798210 0.000105
[Rope3_Seg02]
12 139.999924 -0.000119 0.000060 -1.358848 -4.684523 1.190854 139.999924
13 139.999924 -0.000119 0.000060 -1.036239 -4.744431 2.703045 139.999924
[Rope3_Seg03]
12 139.999924 -0.000119 0.000119 -1.520355 -5.928518 1.368140 139.999924
13 139.999924 -0.000119 0.000119 -1.330032 -6.162153 3.382443 139.999924
[Rope3_Seg04]
12 139.999924 0.000119 0.000000 -1.724584 -7.766114 1.620940 139.999924
13 139.999924 0.000119 0.000000 -1.807105 -8.246687 4.437491 139.999924
[Rope3_Seg05]
12 139.999924 -0.000238 0.000060 -2.031830 -13.446961 2.881245 139.999924
13 139.999924 -0.000238 0.000060 -3.045195 -13.568775 8.137398 139.999924
[Rope3_Seg06]
12 139.999893 -0.000119 -0.000060 -0.152686 -8.789485 1.040194 139.999893
13 139.999893 -0.000119 -0.000060 -0.904822 -9.164617 3.443668 139.999893
[Rope3_Seg07]
12 139.999771 0.000060 -0.000119 0.530413 1.374698 -1.693501 139.999771
13 139.999771 0.000060 -0.000119 0.625949 -0.467316 -3.829651 139.999771
[Rope3_Seg08]
12 139.999985 -0.000060 0.000000 0.539905 2.042798 -1.720067 139.999985
13 139.999985 -0.000060 0.000000 0.528992 0.203324 -4.019118 139.999985
[Rope3_Seg09]
12 90.185997 -0.000179 -0.000060 -83.819885 -1.360053 -0.843977 90.185997
13 90.185997 -0.000179 -0.000060 -109.468651 -1.360936 -0.845268 90.185997
[R_rear_hand01]
12 103.366196 -6.073594 -10.757982 -161.721191 16.852900 -30.680975 104.101845
13 103.366196 -6.073594 -10.757982 -165.486221 20.162516 -42.491085 104.101845
[R_rear_hand02]
12 100.509819 12.039542 -7.992327 -34.103237 19.623930 29.402824 101.543350
13 100.509819 12.039542 -7.992327 -29.943001 25.833317 40.126579 101.543350
[R_rear_hand03]
12 101.539970 5.215704 5.435467 83.325722 -31.526073 7.364222 101.819031
13 101.539970 5.215704 5.435467 82.198982 -43.108852 9.209245 101.819031
[Rope4_Seg01]
12 0.000010 0.000038 -0.000114 126.029900 -64.313591 -171.130371 0.000121
13 0.000010 0.000038 -0.000114 125.614845 -62.037426 -171.512146 0.000121
[Rope4_Seg02]
12 139.999985 0.000060 0.000119 4.861957 -10.332961 -0.244353 139.999985
13 139.999985 0.000060 0.000119 3.995150 -7.053124 0.662689 139.999985
[Rope4_Seg03]
12 139.999924 0.000000 -0.000238 27.226515 -24.095209 1.572329 139.999924
13 139.999924 0.000000 -0.000238 12.349271 -13.733475 2.312165 139.999924
[Rope4_Seg04]
12 139.999985 0.000000 0.000119 86.527885 -41.304916 24.630131 139.999985
13 139.999985 0.000000 0.000119 63.731873 -31.498114 11.874254 139.999985
[Rope4_Seg05]
12 139.999802 -0.000060 -0.000119 10.414989 13.143339 18.506214 139.999802
13 139.999802 -0.000060 -0.000119 39.448658 -4.802128 39.159332 139.999802
[Rope4_Seg06]
12 139.999924 0.000000 0.000060 -2.433102 11.503767 0.059845 139.999924
13 139.999924 0.000000 0.000060 0.381505 12.725508 5.814262 139.999924
[Rope4_Seg07]
12 139.999802 0.000000 0.000000 -3.624507 15.551033 -4.709319 139.999802
13 139.999802 0.000000 0.000000 -4.103416 13.856108 -5.169578 139.999802
[Rope4_Seg08]
12 139.999924 0.000000 0.000119 -1.773474 9.795942 0.544696 139.999924
13 139.999924 0.000000 0.000119 -2.264477 9.436638 -0.458252 139.999924
[Rope4_Seg09]
12 90.185791 0.000060 0.000060 100.215416 2.230886 0.851460 90.185791
13 90.185791 0.000060 0.000060 81.707146 2.228764 0.850780 90.185791
[L_rear_hand01]
12 101.696655 -8.392275 -7.654577 -18.227737 -34.807476 116.961021 102.329041
13 101.696655 -8.392275 -7.654577 -12.874829 -36.868488 107.832764 102.329041
[L_rear_hand02]
12 102.726799 -1.568258 5.773216 76.732224 64.420486 164.128403 102.900848
13 102.726799 -1.568258 5.773216 71.484581 71.816628 158.486160 102.900848
[L_rear_hand03]
12 104.552910 9.721220 -10.420293 -174.245605 -24.028542 -114.495811 105.519653
13 104.552910 9.721220 -10.420293 -177.714203 -24.565960 -106.089035 105.519653
